<?xml version="1.0" encoding="UTF-8"?>
<svg id="Layer_1" xmlns="http://www.w3.org/2000/svg" version="1.1" viewBox="0 0 500 500">
  <!-- Generator: Adobe Illustrator 29.6.1, SVG Export Plug-In . SVG Version: 2.1.1 Build 9)  -->
  <defs>
    <style>
      .st0 {
        fill: #2c8cf4;
      }

      .st1 {
        fill: #9997ff;
      }

      .st2 {
        fill: #10ff92;
      }

      .st3 {
        fill: #7822ff;
      }

      .st4 {
        fill: #70cff9;
      }

      .st5 {
        fill: #fff;
        font-family: AvocadoSansBold-Regular, 'Avocado Sans Bold';
        font-size: 85.44px;
      }
    </style>
  </defs>
  <text class="st5" transform="translate(-718.03 96.95)"><tspan x="0" y="0">TrueConext</tspan></text>
  <g>
    <path class="st2" d="M-755.3,27.06l-43.67-22.7c-8.71-4.53-19.12,1.79-19.12,11.61v23.82l17.4,9.85c4.33,2.45,7.05,7.33,7.05,12.65v44.65l26.27,13.65c8.71,4.53,19.12-1.79,19.12-11.61V38.67c0-4.88-2.72-9.36-7.05-11.61Z"/>
    <path class="st0" d="M-818.09,86.29v-46.49l-26.27-14.87c-8.71-4.93-19.12,1.95-19.12,12.65v21.07l17.4,9.05c4.33,2.25,7.05,6.73,7.05,11.61v37.02l26.27,14.87c8.71,4.93,19.12-1.95,19.12-12.65v-11.6l-17.4-9.05c-4.33-2.25-7.05-6.73-7.05-11.61Z"/>
    <path class="st4" d="M-800.69,49.64l-17.4-9.85v46.49c0,4.88,2.72,9.36,7.05,11.61l17.4,9.05v-44.65c0-5.32-2.72-10.19-7.05-12.65Z"/>
    <path class="st3" d="M-863.48,93.82v-35.18l-26.27-13.65c-8.71-4.53-19.12,1.79-19.12,11.61v51.13c0,4.88,2.72,9.36,7.05,11.61l43.67,22.7c8.71,4.53,19.12-1.79,19.12-11.61v-14.11l-17.4-9.85c-4.33-2.45-7.05-7.33-7.05-12.65Z"/>
    <path class="st1" d="M-846.08,67.69l-17.4-9.05v35.18c0,5.32,2.72,10.19,7.05,12.65l17.4,9.85v-37.02c0-4.88-2.72-9.36-7.05-11.61Z"/>
  </g>
</svg>